<svg width="452" height="459" viewBox="0 0 452 459" fill="none" xmlns="http://www.w3.org/2000/svg">
<mask id="path-1-inside-1_3122_852" fill="white">
<path d="M0 226C0 101.184 101.184 0 226 0C350.816 0 452 101.184 452 226C452 350.816 350.816 452 226 452C101.184 452 0 350.816 0 226Z"/>
</mask>
<g clip-path="url(#paint0_angular_3122_852_clip_path)" data-figma-skip-parse="true" mask="url(#path-1-inside-1_3122_852)"><g transform="matrix(-0.0135 0.264 -0.307717 -0.0157355 264 239.5)"><foreignObject x="-949.094" y="-949.094" width="1898.19" height="1898.19"><div xmlns="http://www.w3.org/1999/xhtml" style="background:conic-gradient(from 90deg,rgba(255, 255, 255, 1) 0deg,rgba(255, 255, 255, 0) 246.731deg,rgba(255, 255, 255, 0) 359.027deg,rgba(255, 255, 255, 1) 360deg);height:100%;width:100%;opacity:1"></div></foreignObject></g></g><path d="M226 452V450C102.288 450 2 349.712 2 226H0H-2C-2 351.921 100.079 454 226 454V452ZM452 226H450C450 349.712 349.712 450 226 450V452V454C351.921 454 454 351.921 454 226H452ZM226 0V2C349.712 2 450 102.288 450 226H452H454C454 100.079 351.921 -2 226 -2V0ZM226 0V-2C100.079 -2 -2 100.079 -2 226H0H2C2 102.288 102.288 2 226 2V0Z" data-figma-gradient-fill="{&#34;type&#34;:&#34;GRADIENT_ANGULAR&#34;,&#34;stops&#34;:[{&#34;color&#34;:{&#34;r&#34;:1.0,&#34;g&#34;:1.0,&#34;b&#34;:1.0,&#34;a&#34;:0.0},&#34;position&#34;:0.68536388874053955},{&#34;color&#34;:{&#34;r&#34;:1.0,&#34;g&#34;:1.0,&#34;b&#34;:1.0,&#34;a&#34;:0.0},&#34;position&#34;:0.99729651212692261},{&#34;color&#34;:{&#34;r&#34;:1.0,&#34;g&#34;:1.0,&#34;b&#34;:1.0,&#34;a&#34;:1.0},&#34;position&#34;:1.0}],&#34;stopsVar&#34;:[{&#34;color&#34;:{&#34;r&#34;:1.0,&#34;g&#34;:1.0,&#34;b&#34;:1.0,&#34;a&#34;:0.0},&#34;position&#34;:0.68536388874053955},{&#34;color&#34;:{&#34;r&#34;:1.0,&#34;g&#34;:1.0,&#34;b&#34;:1.0,&#34;a&#34;:0.0},&#34;position&#34;:0.99729651212692261},{&#34;color&#34;:{&#34;r&#34;:1.0,&#34;g&#34;:1.0,&#34;b&#34;:1.0,&#34;a&#34;:1.0},&#34;position&#34;:1.0}],&#34;transform&#34;:{&#34;m00&#34;:-26.999950408935547,&#34;m01&#34;:-615.43475341796875,&#34;m02&#34;:585.21734619140625,&#34;m10&#34;:528.0,&#34;m11&#34;:-31.471033096313477,&#34;m12&#34;:-8.7644662857055664},&#34;opacity&#34;:1.0,&#34;blendMode&#34;:&#34;NORMAL&#34;,&#34;visible&#34;:true}" mask="url(#path-1-inside-1_3122_852)"/>
<rect x="246" y="439" width="20" height="20" rx="10" fill="white" fill-opacity="0.2"/>
<rect x="250" y="443" width="12" height="12" rx="6" fill="white"/>
<defs>
<clipPath id="paint0_angular_3122_852_clip_path"><path d="M226 452V450C102.288 450 2 349.712 2 226H0H-2C-2 351.921 100.079 454 226 454V452ZM452 226H450C450 349.712 349.712 450 226 450V452V454C351.921 454 454 351.921 454 226H452ZM226 0V2C349.712 2 450 102.288 450 226H452H454C454 100.079 351.921 -2 226 -2V0ZM226 0V-2C100.079 -2 -2 100.079 -2 226H0H2C2 102.288 102.288 2 226 2V0Z" mask="url(#path-1-inside-1_3122_852)"/></clipPath></defs>
</svg>
